PathFileType	4	(X/Y/Z)	 New Session 107.trc
DataRate	CameraRate	NumFrames	NumMarkers	Units	OrigDataRate	OrigDataStartFrame	OrigNumFrames
100	100	24	14	m	100	1	909
Frame#	Time	C7			T8			IJ			PX			AA			AC			AI			TS			SC			GH			LE			ME			US			RS			
		X1	Y1	Z1	X2	Y2	Z2	X3	Y3	Z3	X4	Y4	Z4	X5	Y5	Z5	X6	Y6	Z6	X7	Y7	Z7	X8	Y8	Z8	X9	Y9	Z9	X10	Y10	Z10	X11	Y11	Z11	X12	Y12	Z12	X13	Y13	Z13	X14	Y14	Z14	
1	0.0100	0.016404	0.105587	0.164495	0.015047	-0.106889	0.237794	0.000000	0.000000	0.000000	0.005714	-0.142262	-0.066686	0.211367	0.007557	0.154680	0.166614	0.046847	0.079641	0.095005	0.031728	0.207099	0.096004	-0.086618	0.243498	0.024545	0.008661	0.004922	0.225507	0.018553	0.116221	0.326825	-0.255733	0.073422	0.245649	-0.312306	0.083271	0.332129	-0.410630	-0.164470	0.328853	-0.334359	-0.186106	
2	0.0200	0.016351	0.105611	0.164470	0.015008	-0.106851	0.237784	-0.000064	-0.000006	-0.000051	0.005699	-0.142269	-0.066699	0.211309	0.007590	0.154644	0.166567	0.046869	0.079611	0.094978	0.031751	0.207055	0.095968	-0.086595	0.243442	0.024508	0.008661	0.004892	0.225410	0.018551	0.116143	0.326531	-0.255772	0.073185	0.245793	-0.312234	0.083396	0.332084	-0.410628	-0.164484	0.328837	-0.334518	-0.186180	
3	0.0300	0.016307	0.105619	0.164440	0.014974	-0.106832	0.237771	-0.000090	-0.000005	-0.000079	0.005683	-0.142279	-0.066716	0.211261	0.007606	0.154609	0.166518	0.046871	0.079577	0.094934	0.031764	0.207010	0.095931	-0.086576	0.243401	0.024467	0.008659	0.004859	0.225303	0.018525	0.116046	0.326503	-0.255786	0.073098	0.245871	-0.312195	0.083499	0.332057	-0.410636	-0.164501	0.328846	-0.334564	-0.186207	
4	0.0400	0.016263	0.105628	0.164417	0.014943	-0.106834	0.237758	-0.000078	-0.000001	-0.000085	0.005663	-0.142293	-0.066736	0.211221	0.007605	0.154572	0.166472	0.046860	0.079542	0.094883	0.031766	0.206964	0.095895	-0.086560	0.243373	0.024432	0.008653	0.004823	0.225197	0.018484	0.115942	0.326667	-0.255777	0.073130	0.245886	-0.312186	0.083576	0.332045	-0.410651	-0.164518	0.328858	-0.334539	-0.186208	
5	0.0500	0.016216	0.105650	0.164404	0.014918	-0.106855	0.237747	-0.000040	0.000004	-0.000080	0.005642	-0.142309	-0.066758	0.211181	0.007591	0.154532	0.166430	0.046843	0.079508	0.094849	0.031763	0.206913	0.095860	-0.086548	0.243352	0.024401	0.008646	0.004785	0.225109	0.018442	0.115850	0.326889	-0.255754	0.073224	0.245851	-0.312199	0.083622	0.332041	-0.410664	-0.164534	0.328851	-0.334497	-0.186210	
6	0.0600	0.016167	0.105676	0.164386	0.014897	-0.106886	0.237738	-0.000001	0.000003	-0.000084	0.005617	-0.142328	-0.066784	0.211137	0.007576	0.154488	0.166391	0.046831	0.079472	0.094825	0.031760	0.206854	0.095825	-0.086535	0.243331	0.024368	0.008643	0.004744	0.225046	0.018415	0.115780	0.327035	-0.255731	0.073308	0.245789	-0.312219	0.083638	0.332037	-0.410666	-0.164553	0.328821	-0.334469	-0.186231	
7	0.0700	0.016117	0.105699	0.164347	0.014874	-0.106910	0.237728	0.000005	-0.000006	-0.000116	0.005590	-0.142347	-0.066810	0.211092	0.007573	0.154441	0.166353	0.046827	0.079434	0.094783	0.031766	0.206800	0.095791	-0.086517	0.243300	0.024325	0.008645	0.004698	0.225002	0.018407	0.115726	0.327034	-0.255721	0.073332	0.245727	-0.312235	0.083637	0.332028	-0.410651	-0.164577	0.328776	-0.334470	-0.186274	
8	0.0800	0.016069	0.105719	0.164290	0.014848	-0.106910	0.237709	-0.000039	-0.000026	-0.000186	0.005560	-0.142367	-0.066839	0.211053	0.007587	0.154393	0.166317	0.046831	0.079392	0.094727	0.031788	0.206760	0.095762	-0.086490	0.243250	0.024267	0.008649	0.004649	0.224966	0.018417	0.115679	0.326896	-0.255727	0.073284	0.245676	-0.312240	0.083627	0.332009	-0.410623	-0.164609	0.328728	-0.334489	-0.186334	
9	0.0900	0.016023	0.105738	0.164231	0.014820	-0.106886	0.237677	-0.000120	-0.000051	-0.000283	0.005527	-0.142387	-0.066869	0.211023	0.007610	0.154343	0.166279	0.046837	0.079346	0.094681	0.031814	0.206729	0.095737	-0.086458	0.243171	0.024201	0.008653	0.004598	0.224931	0.018436	0.115631	0.326690	-0.255745	0.073182	0.245637	-0.312238	0.083606	0.331984	-0.410593	-0.164646	0.328686	-0.334501	-0.186395	
10	0.1000	0.015983	0.105755	0.164184	0.014795	-0.106845	0.237633	-0.000209	-0.000075	-0.000387	0.005492	-0.142406	-0.066901	0.210998	0.007629	0.154289	0.166238	0.046838	0.079298	0.094651	0.031828	0.206687	0.095709	-0.086429	0.243069	0.024142	0.008652	0.004545	0.224894	0.018455	0.115580	0.326493	-0.255768	0.073062	0.245607	-0.312234	0.083576	0.331958	-0.410576	-0.164686	0.328655	-0.334508	-0.186450	
11	0.1100	0.015949	0.105765	0.164146	0.014775	-0.106807	0.237584	-0.000279	-0.000095	-0.000480	0.005455	-0.142423	-0.066934	0.210974	0.007637	0.154235	0.166196	0.046828	0.079250	0.094622	0.031833	0.206627	0.095672	-0.086411	0.242968	0.024093	0.008648	0.004493	0.224856	0.018468	0.115526	0.326351	-0.255791	0.072950	0.245589	-0.312230	0.083546	0.331941	-0.410575	-0.164727	0.328632	-0.334529	-0.186499	
12	0.1200	0.015920	0.105768	0.164107	0.014759	-0.106781	0.237536	-0.000322	-0.000108	-0.000555	0.005419	-0.142438	-0.066967	0.210948	0.007637	0.154181	0.166158	0.046811	0.079206	0.094589	0.031829	0.206555	0.095632	-0.086398	0.242923	0.024055	0.008642	0.004448	0.224815	0.018470	0.115472	0.326285	-0.255807	0.072863	0.245591	-0.312225	0.083528	0.331933	-0.410583	-0.164767	0.328614	-0.334557	-0.186541	
13	0.1300	0.015892	0.105769	0.164062	0.014742	-0.106771	0.237489	-0.000349	-0.000115	-0.000612	0.005382	-0.142450	-0.066999	0.210917	0.007637	0.154130	0.166124	0.046793	0.079166	0.094556	0.031825	0.206489	0.095606	-0.086379	0.242983	0.024020	0.008638	0.004410	0.224771	0.018464	0.115417	0.326286	-0.255811	0.072806	0.245611	-0.312219	0.083531	0.331931	-0.410590	-0.164809	0.328601	-0.334573	-0.186576	
14	0.1400	0.015858	0.105774	0.164009	0.014722	-0.106769	0.237444	-0.000378	-0.000116	-0.000663	0.005345	-0.142460	-0.067027	0.210884	0.007640	0.154078	0.166089	0.046781	0.079125	0.094527	0.031829	0.206446	0.095602	-0.086344	0.243136	0.023981	0.008636	0.004375	0.224726	0.018457	0.115359	0.326322	-0.255805	0.072769	0.245637	-0.312212	0.083556	0.331926	-0.410591	-0.164858	0.328591	-0.334564	-0.186608	
15	0.1500	0.015820	0.105783	0.163952	0.014698	-0.106767	0.237398	-0.000424	-0.000117	-0.000712	0.005310	-0.142469	-0.067051	0.210853	0.007646	0.154021	0.166045	0.046777	0.079078	0.094501	0.031844	0.206420	0.095614	-0.086298	0.243321	0.023939	0.008636	0.004338	0.224682	0.018453	0.115296	0.326351	-0.255797	0.072735	0.245653	-0.312208	0.083590	0.331910	-0.410584	-0.164915	0.328585	-0.334533	-0.186645	
16	0.1600	0.015782	0.105797	0.163896	0.014674	-0.106761	0.237352	-0.000491	-0.000121	-0.000763	0.005275	-0.142479	-0.067069	0.210828	0.007654	0.153953	0.165993	0.046779	0.079024	0.094483	0.031864	0.206387	0.095629	-0.086252	0.243459	0.023896	0.008631	0.004295	0.224641	0.018455	0.115229	0.326346	-0.255795	0.072691	0.245649	-0.312207	0.083617	0.331883	-0.410572	-0.164978	0.328576	-0.334493	-0.186691	
17	0.1700	0.015751	0.105814	0.163841	0.014654	-0.106748	0.237306	-0.000573	-0.000129	-0.000813	0.005240	-0.142489	-0.067082	0.210812	0.007663	0.153874	0.165935	0.046779	0.078962	0.094467	0.031880	0.206339	0.095638	-0.086217	0.243494	0.023856	0.008617	0.004250	0.224610	0.018464	0.115163	0.326314	-0.255800	0.072635	0.245624	-0.312210	0.083629	0.331855	-0.410559	-0.165042	0.328557	-0.334471	-0.186752	
18	0.1800	0.015730	0.105832	0.163787	0.014638	-0.106729	0.237260	-0.000664	-0.000142	-0.000859	0.005207	-0.142503	-0.067091	0.210805	0.007675	0.153792	0.165879	0.046779	0.078896	0.094450	0.031887	0.206284	0.095637	-0.086195	0.243415	0.023819	0.008597	0.004207	0.224597	0.018480	0.115103	0.326270	-0.255808	0.072569	0.245586	-0.312214	0.083626	0.331832	-0.410551	-0.165104	0.328524	-0.334485	-0.186830	
19	0.1900	0.015716	0.105848	0.163736	0.014625	-0.106706	0.237217	-0.000757	-0.000161	-0.000899	0.005172	-0.142519	-0.067097	0.210801	0.007688	0.153713	0.165826	0.046779	0.078827	0.094429	0.031894	0.206229	0.095624	-0.086184	0.243250	0.023781	0.008574	0.004167	0.224604	0.018501	0.115052	0.326227	-0.255816	0.072498	0.245547	-0.312220	0.083612	0.331814	-0.410547	-0.165165	0.328481	-0.334521	-0.186917	
20	0.2000	0.015701	0.105862	0.163691	0.014615	-0.106683	0.237179	-0.000851	-0.000181	-0.000937	0.005136	-0.142539	-0.067102	0.210792	0.007703	0.153641	0.165778	0.046781	0.078755	0.094407	0.031905	0.206172	0.095601	-0.086177	0.243055	0.023739	0.008554	0.004123	0.224620	0.018523	0.115003	0.326189	-0.255821	0.072426	0.245513	-0.312228	0.083596	0.331794	-0.410547	-0.165225	0.328440	-0.334557	-0.187004	
21	0.2100	0.015679	0.105878	0.163651	0.014606	-0.106664	0.237148	-0.000946	-0.000198	-0.000973	0.005097	-0.142562	-0.067108	0.210775	0.007719	0.153573	0.165730	0.046786	0.078680	0.094393	0.031924	0.206110	0.095576	-0.086167	0.242893	0.023690	0.008539	0.004076	0.224630	0.018536	0.114943	0.326150	-0.255822	0.072358	0.245488	-0.312240	0.083585	0.331770	-0.410547	-0.165286	0.328406	-0.334574	-0.187082	
22	0.2200	0.015647	0.105894	0.163613	0.014598	-0.106649	0.237126	-0.001039	-0.000209	-0.001008	0.005054	-0.142588	-0.067114	0.210752	0.007735	0.153504	0.165680	0.046792	0.078603	0.094388	0.031952	0.206051	0.095559	-0.086152	0.242793	0.023640	0.008529	0.004028	0.224622	0.018536	0.114862	0.326107	-0.255820	0.072296	0.245476	-0.312256	0.083581	0.331743	-0.410547	-0.165345	0.328382	-0.334566	-0.187146	
23	0.2300	0.015607	0.105906	0.163574	0.014591	-0.106638	0.237110	-0.001124	-0.000219	-0.001041	0.005008	-0.142616	-0.067120	0.210731	0.007748	0.153433	0.165630	0.046793	0.078527	0.094379	0.031967	0.205995	0.095553	-0.086133	0.242744	0.023589	0.008521	0.003986	0.224593	0.018523	0.114761	0.326060	-0.255818	0.072240	0.245476	-0.312273	0.083587	0.331710	-0.410550	-0.165402	0.328368	-0.334531	-0.187193	
24	0.2400	0.015565	0.105908	0.163529	0.014586	-0.106632	0.237095	-0.001197	-0.000233	-0.001071	0.004961	-0.142646	-0.067124	0.210715	0.007755	0.153360	0.165584	0.046787	0.078455	0.094361	0.031961	0.205935	0.095554	-0.086115	0.242720	0.023536	0.008507	0.003954	0.224553	0.018506	0.114655	0.326017	-0.255817	0.072190	0.245490	-0.312286	0.083603	0.331672	-0.410560	-0.165462	0.328356	-0.334485	-0.187226	
